<?xml version="1.0"?><svg width="793.7007874015749" height="1122.5196850393702" xmlns="http://www.w3.org/2000/svg">
 <title>Blank Interstate Sign</title>

 <g>
  <title>Layer 1</title>
  <path d="m397.619629,5.377281c-54.123383,38.011635 -119.964478,60.48803 -191.078247,60.48803c-49.569962,0 -96.416916,-11.104969 -138.701897,-30.54446c-38.653887,78.308941 -60.588181,166.321774 -60.588181,259.577801c0,255.482025 163.08207,472.526886 390.468453,554.407074c227.386261,-81.880188 390.368378,-298.925049 390.368317,-554.407074c0,-93.256027 -21.951294,-181.26886 -60.588318,-259.577801c-42.291565,19.446915 -89.221924,30.54446 -138.802002,30.54446c-71.11377,0 -136.954773,-22.476341 -191.078125,-60.48803z" id="path908" stroke-width="2.3714743pt" stroke="#000000" fill-rule="evenodd" fill="#ffffff"/>
  <g id="g3418">
   <path d="m777.341003,231.83017l-757.919704,0c-2.62673,22.004425 -3.988823,44.431854 -3.988823,67.145355c0,248.067261 159.932362,458.790344 382.970448,538.29425c223.037994,-79.503845 382.927032,-290.22699 382.92691,-538.29425c0,-22.713501 -1.360596,-45.14093 -3.988831,-67.145355z" id="path1540" stroke-width="2.2500435pt" fill-rule="evenodd" fill="#007fff"/>
   <path d="m398.316284,17.861572c-53.088531,36.908432 -117.677643,58.703224 -187.431473,58.703224c-48.622086,0 -94.577202,-10.759186 -136.053551,-29.634499c-24.905682,49.947128 -42.551975,103.984619 -51.854706,160.835495l750.809151,0c-9.306213,-56.850876 -27.003296,-110.888367 -51.897949,-160.835495c-41.483032,18.8825 -87.508484,29.634499 -136.140381,29.634499c-69.753784,0 -134.342834,-21.79475 -187.431091,-58.703224z" id="path1536" stroke-width="2.2500435pt" fill-rule="evenodd" fill="#ff0000"/>
  </g>
 </g>
</svg>